<svg width="375" height="44" viewBox="0 0 375 44" fill="none" xmlns="http://www.w3.org/2000/svg">
<path d="M0.482955 26.5966V21.6875L23.8011 10.9148V16.9659L7.23295 24.0739L7.42045 23.75V24.5341L7.23295 24.2102L23.8011 31.3182V37.3693L0.482955 26.5966ZM345.905 1.45454L334.655 43.25H329.251L340.501 1.45454H345.905ZM374.473 26.5966L351.155 37.3693V31.3182L367.723 24.2102L367.536 24.5341V23.75L367.723 24.0739L351.155 16.9659V10.9148L374.473 21.6875V26.5966Z" fill="#FCB600"/>
<path d="M43.0809 38.336C40.9049 38.336 38.9849 37.936 37.3209 37.136C35.6569 36.304 34.3609 35.056 33.4329 33.392C32.5049 31.696 32.0409 29.568 32.0409 27.008V12.368H38.0409V26.192C38.0409 28.496 38.5529 30.224 39.5769 31.376C40.6329 32.496 42.1209 33.056 44.0409 33.056C45.4489 33.056 46.6649 32.768 47.6889 32.192C48.7449 31.616 49.5609 30.752 50.1369 29.6C50.7449 28.448 51.0489 27.024 51.0489 25.328V12.368H57.0489V38H51.3369V31.088L52.3449 33.2C51.4809 34.864 50.2169 36.144 48.5529 37.04C46.8889 37.904 45.0649 38.336 43.0809 38.336ZM97.2568 12.08C99.3048 12.08 101.113 12.48 102.681 13.28C104.281 14.08 105.529 15.312 106.425 16.976C107.321 18.608 107.769 20.72 107.769 23.312V38H101.769V24.08C101.769 21.808 101.273 20.112 100.281 18.992C99.2888 17.872 97.8648 17.312 96.0088 17.312C94.6968 17.312 93.5288 17.6 92.5048 18.176C91.5128 18.752 90.7288 19.6 90.1528 20.72C89.6088 21.84 89.3368 23.264 89.3368 24.992V38H83.3368V24.08C83.3368 21.808 82.8408 20.112 81.8488 18.992C80.8568 17.872 79.4328 17.312 77.5768 17.312C76.2648 17.312 75.0968 17.6 74.0728 18.176C73.0808 18.752 72.2968 19.6 71.7208 20.72C71.1768 21.84 70.9048 23.264 70.9048 24.992V38H64.9048V12.368H70.6168V19.184L69.6088 17.168C70.4728 15.504 71.7208 14.24 73.3528 13.376C75.0168 12.512 76.9048 12.08 79.0168 12.08C81.4168 12.08 83.4968 12.672 85.2568 13.856C87.0488 15.04 88.2328 16.832 88.8088 19.232L86.4568 18.416C87.2888 16.496 88.6648 14.96 90.5848 13.808C92.5048 12.656 94.7288 12.08 97.2568 12.08ZM127.531 38.336C124.683 38.336 122.187 37.776 120.043 36.656C117.931 35.504 116.283 33.936 115.099 31.952C113.947 29.968 113.371 27.712 113.371 25.184C113.371 22.624 113.931 20.368 115.051 18.416C116.203 16.432 117.771 14.88 119.755 13.76C121.771 12.64 124.059 12.08 126.619 12.08C129.115 12.08 131.339 12.624 133.291 13.712C135.243 14.8 136.779 16.336 137.899 18.32C139.019 20.304 139.579 22.64 139.579 25.328C139.579 25.584 139.563 25.872 139.531 26.192C139.531 26.512 139.515 26.816 139.483 27.104H118.123V23.12H136.315L133.963 24.368C133.995 22.896 133.691 21.6 133.051 20.48C132.411 19.36 131.531 18.48 130.411 17.84C129.323 17.2 128.059 16.88 126.619 16.88C125.147 16.88 123.851 17.2 122.731 17.84C121.643 18.48 120.779 19.376 120.139 20.528C119.531 21.648 119.227 22.976 119.227 24.512V25.472C119.227 27.008 119.579 28.368 120.283 29.552C120.987 30.736 121.979 31.648 123.259 32.288C124.539 32.928 126.011 33.248 127.675 33.248C129.115 33.248 130.411 33.024 131.563 32.576C132.715 32.128 133.739 31.424 134.635 30.464L137.851 34.16C136.699 35.504 135.243 36.544 133.483 37.28C131.755 37.984 129.771 38.336 127.531 38.336ZM145.342 38V12.368H151.054V19.424L150.382 17.36C151.15 15.632 152.35 14.32 153.982 13.424C155.646 12.528 157.71 12.08 160.174 12.08V17.792C159.918 17.728 159.678 17.696 159.454 17.696C159.23 17.664 159.006 17.648 158.782 17.648C156.51 17.648 154.702 18.32 153.358 19.664C152.014 20.976 151.342 22.944 151.342 25.568V38H145.342ZM186.684 38.336C184.54 38.336 182.476 38.064 180.492 37.52C178.54 36.944 176.988 36.256 175.836 35.456L178.14 30.896C179.292 31.632 180.668 32.24 182.268 32.72C183.868 33.2 185.468 33.44 187.068 33.44C188.956 33.44 190.316 33.184 191.148 32.672C192.012 32.16 192.444 31.472 192.444 30.608C192.444 29.904 192.156 29.376 191.58 29.024C191.004 28.64 190.252 28.352 189.324 28.16C188.396 27.968 187.356 27.792 186.204 27.632C185.084 27.472 183.948 27.264 182.796 27.008C181.676 26.72 180.652 26.32 179.724 25.808C178.796 25.264 178.044 24.544 177.468 23.648C176.892 22.752 176.604 21.568 176.604 20.096C176.604 18.464 177.068 17.056 177.996 15.872C178.924 14.656 180.22 13.728 181.884 13.088C183.58 12.416 185.58 12.08 187.884 12.08C189.612 12.08 191.356 12.272 193.116 12.656C194.876 13.04 196.332 13.584 197.484 14.288L195.18 18.848C193.964 18.112 192.732 17.616 191.484 17.36C190.268 17.072 189.052 16.928 187.836 16.928C186.012 16.928 184.652 17.2 183.756 17.744C182.892 18.288 182.46 18.976 182.46 19.808C182.46 20.576 182.748 21.152 183.324 21.536C183.9 21.92 184.652 22.224 185.58 22.448C186.508 22.672 187.532 22.864 188.652 23.024C189.804 23.152 190.94 23.36 192.06 23.648C193.18 23.936 194.204 24.336 195.132 24.848C196.092 25.328 196.86 26.016 197.436 26.912C198.012 27.808 198.3 28.976 198.3 30.416C198.3 32.016 197.82 33.408 196.86 34.592C195.932 35.776 194.604 36.704 192.876 37.376C191.148 38.016 189.084 38.336 186.684 38.336ZM218.011 12.08C220.059 12.08 221.883 12.48 223.483 13.28C225.115 14.08 226.395 15.312 227.323 16.976C228.251 18.608 228.715 20.72 228.715 23.312V38H222.715V24.08C222.715 21.808 222.171 20.112 221.083 18.992C220.027 17.872 218.539 17.312 216.619 17.312C215.211 17.312 213.963 17.6 212.875 18.176C211.787 18.752 210.939 19.616 210.331 20.768C209.755 21.888 209.467 23.312 209.467 25.04V38H203.467V2.384H209.467V19.28L208.171 17.168C209.067 15.536 210.363 14.288 212.059 13.424C213.787 12.528 215.771 12.08 218.011 12.08ZM252.119 38V32.816L251.783 31.712V22.64C251.783 20.88 251.255 19.52 250.199 18.56C249.143 17.568 247.543 17.072 245.399 17.072C243.959 17.072 242.535 17.296 241.127 17.744C239.751 18.192 238.583 18.816 237.623 19.616L235.271 15.248C236.647 14.192 238.279 13.408 240.167 12.896C242.087 12.352 244.071 12.08 246.119 12.08C249.831 12.08 252.695 12.976 254.711 14.768C256.759 16.528 257.783 19.264 257.783 22.976V38H252.119ZM244.055 38.336C242.135 38.336 240.455 38.016 239.015 37.376C237.575 36.704 236.455 35.792 235.655 34.64C234.887 33.456 234.503 32.128 234.503 30.656C234.503 29.216 234.839 27.92 235.511 26.768C236.215 25.616 237.351 24.704 238.919 24.032C240.487 23.36 242.567 23.024 245.159 23.024H252.599V27.008H245.591C243.543 27.008 242.167 27.344 241.463 28.016C240.759 28.656 240.407 29.456 240.407 30.416C240.407 31.504 240.839 32.368 241.703 33.008C242.567 33.648 243.767 33.968 245.303 33.968C246.775 33.968 248.087 33.632 249.239 32.96C250.423 32.288 251.271 31.296 251.783 29.984L252.791 33.584C252.215 35.088 251.175 36.256 249.671 37.088C248.199 37.92 246.327 38.336 244.055 38.336ZM279.691 38.336C277.515 38.336 275.579 37.856 273.883 36.896C272.187 35.936 270.843 34.496 269.851 32.576C268.891 30.624 268.411 28.16 268.411 25.184C268.411 22.176 268.907 19.712 269.899 17.792C270.923 15.872 272.283 14.448 273.979 13.52C275.707 12.56 277.611 12.08 279.691 12.08C282.219 12.08 284.443 12.624 286.363 13.712C288.315 14.8 289.851 16.32 290.971 18.272C292.123 20.224 292.699 22.528 292.699 25.184C292.699 27.84 292.123 30.144 290.971 32.096C289.851 34.048 288.315 35.584 286.363 36.704C284.443 37.792 282.219 38.336 279.691 38.336ZM265.483 38V2.384H271.483V18.32L271.003 25.136L271.195 31.952V38H265.483ZM279.019 33.2C280.459 33.2 281.739 32.88 282.859 32.24C284.011 31.6 284.923 30.672 285.595 29.456C286.267 28.24 286.603 26.816 286.603 25.184C286.603 23.52 286.267 22.096 285.595 20.912C284.923 19.696 284.011 18.768 282.859 18.128C281.739 17.488 280.459 17.168 279.019 17.168C277.579 17.168 276.283 17.488 275.131 18.128C273.979 18.768 273.067 19.696 272.395 20.912C271.723 22.096 271.387 23.52 271.387 25.184C271.387 26.816 271.723 28.24 272.395 29.456C273.067 30.672 273.979 31.6 275.131 32.24C276.283 32.88 277.579 33.2 279.019 33.2ZM298.389 38V12.368H304.389V38H298.389ZM301.413 8.144C300.293 8.144 299.365 7.792 298.629 7.088C297.925 6.384 297.573 5.536 297.573 4.544C297.573 3.52 297.925 2.672 298.629 2C299.365 1.296 300.293 0.943999 301.413 0.943999C302.533 0.943999 303.445 1.28 304.149 1.952C304.885 2.592 305.253 3.408 305.253 4.4C305.253 5.456 304.901 6.352 304.197 7.088C303.493 7.792 302.565 8.144 301.413 8.144ZM312.264 38V12.368H317.976V19.424L317.304 17.36C318.072 15.632 319.272 14.32 320.904 13.424C322.568 12.528 324.632 12.08 327.096 12.08V17.792C326.84 17.728 326.6 17.696 326.376 17.696C326.152 17.664 325.928 17.648 325.704 17.648C323.432 17.648 321.624 18.32 320.28 19.664C318.936 20.976 318.264 22.944 318.264 25.568V38H312.264Z" fill="#3A4342"/>
</svg>
