<svg width="180" height="40" viewBox="0 0 180 40" fill="none" xmlns="http://www.w3.org/2000/svg">
<g clip-path="url(#clip0_1769_1176)">
<path d="M150.313 11.1339H144.572V38.9016H150.313V24.2858V16.9292H159.99V11.1339H150.313Z" fill="#FF7400"/>
<path d="M14.8462 11.9783H8.7168L14.8462 17.804V11.9783Z" fill="#FF7400"/>
<path d="M43.0628 30.4273C42.5586 32.5049 41.4651 34.1694 39.7764 35.4086C37.9904 36.7147 35.7731 37.3708 33.1306 37.3708C31.2109 37.3708 29.4432 36.9577 27.8212 36.1315C26.1993 35.3054 24.8932 34.0661 23.903 32.4138C23.5385 31.8063 23.2348 31.1442 22.9979 30.4334H20.7441C20.9993 31.2596 21.3212 32.0432 21.7161 32.7843C22.8399 34.8862 24.3951 36.496 26.3815 37.6198C28.368 38.7437 30.6156 39.3086 33.1245 39.3086C36.4656 39.3086 39.2235 38.4582 41.4105 36.7572C43.4941 35.1292 44.8184 33.0213 45.3955 30.4395H43.0628V30.4273Z" fill="#FF7400"/>
<path d="M8.68602 35.7488C7.97527 35.0259 7.61686 33.6652 7.61686 31.7152V5.04697H5.22341V11.8932H1.15332V13.9951H5.22341V31.7212C5.22341 34.3091 5.78836 36.1923 6.90612 37.31C8.02387 38.4278 9.78555 38.9988 12.1486 38.9988H15.6052V36.8423H12.4949C10.6785 36.8423 9.39677 36.4717 8.68602 35.7488Z" fill="#3B4046"/>
<path d="M39.8924 13.2176C37.985 12.1059 35.713 11.547 33.1312 11.547C30.5859 11.547 28.2836 12.112 26.2971 13.2176C24.3046 14.3293 22.7373 15.9512 21.6256 18.0349C20.514 20.1185 19.9551 22.6031 19.9551 25.4157C19.9551 25.689 19.9612 25.9746 19.9794 26.3269L19.9855 26.4059H22.3242H22.4464L45.6574 26.3937L45.6635 26.3208C45.7303 25.7255 45.7607 24.8204 45.7607 23.6358C45.7607 21.5157 45.2564 19.511 44.2602 17.6704C43.27 15.8236 41.7999 14.3293 39.8924 13.2176ZM33.0826 13.5942C34.9476 13.5942 36.7032 14.0012 38.3008 14.8031C39.8985 15.605 41.1803 16.8381 42.1097 18.4662C43.027 20.082 43.4522 22.0746 43.3672 24.3951H22.4032C22.4761 22.0746 23.0168 20.082 24.0009 18.4722C24.9971 16.8381 26.3032 15.605 27.8887 14.8092C29.4681 14.0012 31.2177 13.5942 33.0826 13.5942Z" fill="#3B4046"/>
<path d="M89.7355 11.8933V18.5816C88.9154 16.6073 87.5608 14.9489 85.6958 13.6428C83.7094 12.2517 81.2552 11.547 78.4061 11.547C75.8912 11.547 73.6192 12.118 71.6449 13.2419C69.6706 14.3718 68.1094 15.9998 66.9977 18.0834C65.886 20.1671 65.3271 22.6334 65.3271 25.4157C65.3271 28.1979 65.8921 30.6703 66.9977 32.7722C68.1094 34.8741 69.6706 36.5203 71.6388 37.6685C73.607 38.8105 75.8851 39.3876 78.4 39.3876C81.2126 39.3876 83.6608 38.6708 85.6654 37.2675C87.5425 35.9493 88.9094 34.2666 89.7294 32.2619V38.9928H92.1229V11.8933H89.7355ZM78.7098 37.2372C76.5837 37.2372 74.6701 36.7573 73.0239 35.8096C71.3776 34.8619 70.0776 33.489 69.1603 31.7274C68.243 29.9657 67.7814 27.8395 67.7814 25.4157C67.7814 22.9919 68.243 20.8718 69.1603 19.104C70.0715 17.3423 71.3655 15.9755 72.9996 15.0461C74.6337 14.1166 76.5533 13.6428 78.7098 13.6428C80.7692 13.6428 82.6584 14.1288 84.3229 15.0947C85.9874 16.0606 87.3238 17.4517 88.2837 19.2316C89.2495 21.0115 89.7355 23.0951 89.7355 25.4157C89.7355 27.7727 89.2556 29.8685 88.308 31.6545C87.3603 33.4344 86.0299 34.8255 84.3472 35.7853C82.6645 36.7512 80.7692 37.2372 78.7098 37.2372Z" fill="#3B4046"/>
<path d="M111.295 16.1881H106.235V38.9077H100.53V16.1881H97.3047V11.5774H100.53V9.64558C100.53 6.50493 101.363 4.21475 103.033 2.77503C104.704 1.33531 107.322 0.618492 110.894 0.618492V5.3325C109.175 5.3325 107.966 5.65447 107.273 6.29839C106.581 6.94231 106.235 8.06007 106.235 9.64558V11.5774H111.295V16.1881Z" fill="#FF7400"/>
<path d="M119.848 37.5895C117.764 36.417 116.13 34.7647 114.939 32.6324C113.749 30.5002 113.153 28.0278 113.153 25.2152C113.153 22.439 113.767 19.9727 114.988 17.8283C116.209 15.6778 117.879 14.0255 120 12.8652C122.114 11.711 124.483 11.1278 127.095 11.1278C129.707 11.1278 132.07 11.7049 134.19 12.8652C136.304 14.0255 137.975 15.6778 139.202 17.8283C140.423 19.9787 141.036 22.439 141.036 25.2152C141.036 27.9913 140.411 30.4577 139.153 32.6081C137.896 34.7586 136.183 36.417 134.02 37.5955C131.851 38.768 129.464 39.3572 126.852 39.3572C124.264 39.3511 121.931 38.768 119.848 37.5895ZM130.934 33.4039C132.204 32.7114 133.243 31.6666 134.032 30.2815C134.828 28.8904 135.223 27.2077 135.223 25.2212C135.223 23.2348 134.84 21.5582 134.081 20.1853C133.321 18.8124 132.313 17.7797 131.056 17.0871C129.798 16.3946 128.443 16.0484 126.986 16.0484C125.528 16.0484 124.185 16.3946 122.946 17.0871C121.707 17.7797 120.722 18.8185 119.993 20.1853C119.265 21.5582 118.9 23.2348 118.9 25.2212C118.9 28.1675 119.653 30.4395 121.154 32.0432C122.66 33.6469 124.55 34.4488 126.834 34.4488C128.298 34.4427 129.664 34.0965 130.934 33.4039Z" fill="#FF7400"/>
<path d="M172.608 16.1881V31.3142C172.608 32.3409 172.845 33.0759 173.324 33.5194C173.804 33.9628 174.624 34.1876 175.779 34.1876H179.253V38.9016H174.788C172.243 38.9016 170.293 38.3063 168.938 37.1156C167.584 35.925 166.903 33.9932 166.903 31.3142V16.1881H163.678V11.5773H166.903V4.78577H172.608V11.5834H179.253V16.1942H172.608V16.1881Z" fill="#FF7400"/>
<path d="M50.3652 39.3512H52.7344V13.6793H63.7661V11.626H50.3652V39.3512Z" fill="#3B4046"/>
</g>
<defs>
<clipPath id="clip0_1769_1176">
<rect width="180" height="40" fill="white"/>
</clipPath>
</defs>
</svg>
